HIERARCHY
ROOT Hips
{
	OFFSET 0.000000 83.214638 0.000000
	CHANNELS 6 Xposition Yposition Zposition Xrotation Yrotation Zrotation
	JOINT Pelvis
	{
		OFFSET 0.000000 0.000000 0.000000
		CHANNELS 3 Xrotation Yrotation Zrotation
		JOINT LeftUpLeg
		{
			OFFSET 8.479700 -4.795502 -0.379100
			CHANNELS 3 Xrotation Yrotation Zrotation
			JOINT LeftLeg
			{
				OFFSET 0.024144 -32.555107 0.112900
				CHANNELS 3 Xrotation Yrotation Zrotation
				JOINT LeftFoot
				{
					OFFSET -0.024144 -32.638630 -3.012600
					CHANNELS 3 Xrotation Yrotation Zrotation
					JOINT LeftToeBase
					{
						OFFSET 0.970200 -13.225400 11.864200
						CHANNELS 3 Xrotation Yrotation Zrotation
						End Site
						{
							OFFSET 0.000000 12.319262 0.000000
						}
					}
					JOINT LFootTongue
					{
						OFFSET 1.142400 -1.059800 6.665200
						CHANNELS 3 Xrotation Yrotation Zrotation
						End Site
						{
							OFFSET 0.000000 12.319262 0.000000
						}
					}
				}
				JOINT LeftPantLeg
				{
					OFFSET 0.918482 -16.533964 -2.284700
					CHANNELS 3 Xrotation Yrotation Zrotation
					End Site
					{
						OFFSET 0.350399 24.744368 0.000000
					}
				}
			}
		}
		JOINT RightUpLeg
		{
			OFFSET -8.479700 -4.795502 -0.379100
			CHANNELS 3 Xrotation Yrotation Zrotation
			JOINT RightLeg
			{
				OFFSET -0.023144 -32.555092 0.112900
				CHANNELS 3 Xrotation Yrotation Zrotation
				JOINT RightFoot
				{
					OFFSET 0.023144 -32.638641 -3.012700
					CHANNELS 3 Xrotation Yrotation Zrotation
					JOINT RightToeBase
					{
						OFFSET -0.970200 -13.225400 11.864200
						CHANNELS 3 Xrotation Yrotation Zrotation
						End Site
						{
							OFFSET 0.000000 12.319244 0.000000
						}
					}
					JOINT RFootTongue
					{
						OFFSET -1.142200 -1.059800 6.665200
						CHANNELS 3 Xrotation Yrotation Zrotation
						End Site
						{
							OFFSET 0.000000 12.319243 0.000000
						}
					}
				}
				JOINT RightPantLeg
				{
					OFFSET -0.919482 -16.533978 -2.284800
					CHANNELS 3 Xrotation Yrotation Zrotation
					End Site
					{
						OFFSET -0.350400 24.744419 0.000000
					}
				}
			}
		}
	}
	JOINT Spine
	{
		OFFSET 0.000000 7.722000 1.166200
		CHANNELS 3 Xrotation Yrotation Zrotation
		JOINT Spine1
		{
			OFFSET 0.000000 12.024101 0.248800
			CHANNELS 3 Xrotation Yrotation Zrotation
			JOINT Spine2
			{
				OFFSET 0.000000 11.502998 -0.491200
				CHANNELS 3 Xrotation Yrotation Zrotation
				JOINT Neck
				{
					OFFSET 0.000000 18.430702 -3.123100
					CHANNELS 3 Xrotation Yrotation Zrotation
					JOINT Head
					{
						OFFSET 0.000000 9.051102 1.034000
						CHANNELS 3 Xrotation Yrotation Zrotation
						JOINT HairB
						{
							OFFSET 0.208400 24.786102 24.822300
							CHANNELS 3 Xrotation Yrotation Zrotation
							End Site
							{
								OFFSET 0.000000 32.263779 0.000000
							}
						}
						JOINT HairA
						{
							OFFSET -7.081100 24.428299 23.196600
							CHANNELS 3 Xrotation Yrotation Zrotation
							End Site
							{
								OFFSET 0.000000 32.263779 0.000000
							}
						}
						JOINT Hat
						{
							OFFSET 16.728800 15.048294 -15.439601
							CHANNELS 3 Xrotation Yrotation Zrotation
							End Site
							{
								OFFSET 0.000000 32.263779 0.000000
							}
						}
					}
				}
				JOINT LeftShoulder
				{
					OFFSET 6.197800 13.665199 -4.064700
					CHANNELS 3 Xrotation Yrotation Zrotation
					JOINT LeftArm
					{
						OFFSET 7.778100 -0.187103 -1.709300
						CHANNELS 3 Xrotation Yrotation Zrotation
						JOINT LeftForeArm
						{
							OFFSET 22.049376 0.000000 0.000000
							CHANNELS 3 Xrotation Yrotation Zrotation
							JOINT LeftHand
							{
								OFFSET 23.009392 0.000000 0.000000
								CHANNELS 3 Xrotation Yrotation Zrotation
								JOINT LeftHandThumb1
								{
									OFFSET 3.507191 -2.063065 3.133727
									CHANNELS 3 Xrotation Yrotation Zrotation
									JOINT LeftHandThumb2
									{
										OFFSET 3.101337 -1.790558 1.790558
										CHANNELS 3 Xrotation Yrotation Zrotation
										JOINT LeftHandThumb3
										{
											OFFSET 3.058640 -1.765907 1.765906
											CHANNELS 3 Xrotation Yrotation Zrotation
											End Site
											{
												OFFSET -0.415260 3.926476 -0.049563
											}
										}
									}
								}
								JOINT LeftHandIndex1
								{
									OFFSET 11.334419 -0.901459 3.706815
									CHANNELS 3 Xrotation Yrotation Zrotation
									JOINT LeftHandIndex2
									{
										OFFSET 3.283112 0.000000 0.000000
										CHANNELS 3 Xrotation Yrotation Zrotation
										JOINT LeftHandIndex3
										{
											OFFSET 3.323853 0.000000 0.000000
											CHANNELS 3 Xrotation Yrotation Zrotation
											End Site
											{
												OFFSET -1.135597 3.097809 0.402452
											}
										}
									}
								}
								JOINT LeftHandMiddle1
								{
									OFFSET 11.335861 0.000000 0.000000
									CHANNELS 3 Xrotation Yrotation Zrotation
									JOINT LeftHandMiddle2
									{
										OFFSET 3.410492 0.000000 0.000000
										CHANNELS 3 Xrotation Yrotation Zrotation
										JOINT LeftHandMiddle3
										{
											OFFSET 3.312172 0.000000 0.000000
											CHANNELS 3 Xrotation Yrotation Zrotation
											End Site
											{
												OFFSET -1.150200 3.080154 0.400270
											}
										}
									}
								}
								JOINT LeftHandRing1
								{
									OFFSET 11.514786 -0.013176 -3.003090
									CHANNELS 3 Xrotation Yrotation Zrotation
									JOINT LeftHandRing2
									{
										OFFSET 3.053307 0.000000 0.000000
										CHANNELS 3 Xrotation Yrotation Zrotation
										JOINT LeftHandRing3
										{
											OFFSET 3.295807 0.000000 0.000000
											CHANNELS 3 Xrotation Yrotation Zrotation
											End Site
											{
												OFFSET -1.281006 3.013344 0.375733
											}
										}
									}
								}
								JOINT LeftHandPinky1
								{
									OFFSET 10.518692 -0.960396 -5.730441
									CHANNELS 3 Xrotation Yrotation Zrotation
									JOINT LeftHandPinky2
									{
										OFFSET 2.861649 0.000000 0.000000
										CHANNELS 3 Xrotation Yrotation Zrotation
										JOINT LeftHandPinky3
										{
											OFFSET 2.863380 0.000000 0.000000
											CHANNELS 3 Xrotation Yrotation Zrotation
											End Site
											{
												OFFSET -0.843597 2.711159 0.369971
											}
										}
									}
								}
							}
							JOINT LSleeve
							{
								OFFSET 6.676277 -0.344902 -1.011730
								CHANNELS 3 Xrotation Yrotation Zrotation
								End Site
								{
									OFFSET 0.000000 14.885353 0.000000
								}
							}
						}
					}
				}
				JOINT RightShoulder
				{
					OFFSET -6.197800 13.665199 -4.064700
					CHANNELS 3 Xrotation Yrotation Zrotation
					JOINT RightArm
					{
						OFFSET -7.778100 -0.187103 -1.709300
						CHANNELS 3 Xrotation Yrotation Zrotation
						JOINT RightForeArm
						{
							OFFSET -22.049376 0.000000 0.000000
							CHANNELS 3 Xrotation Yrotation Zrotation
							JOINT RightHand
							{
								OFFSET -23.009392 0.000000 0.000000
								CHANNELS 3 Xrotation Yrotation Zrotation
								JOINT RightHandThumb1
								{
									OFFSET -3.507191 -2.063065 3.133727
									CHANNELS 3 Xrotation Yrotation Zrotation
									JOINT RightHandThumb2
									{
										OFFSET -3.101337 -1.790558 1.790558
										CHANNELS 3 Xrotation Yrotation Zrotation
										JOINT RightHandThumb3
										{
											OFFSET -3.058640 -1.765907 1.765906
											CHANNELS 3 Xrotation Yrotation Zrotation
											End Site
											{
												OFFSET 0.415260 3.926476 -0.049563
											}
										}
									}
								}
								JOINT RightHandIndex1
								{
									OFFSET -11.334419 -0.901459 3.706815
									CHANNELS 3 Xrotation Yrotation Zrotation
									JOINT RightHandIndex2
									{
										OFFSET -3.283112 0.000000 0.000000
										CHANNELS 3 Xrotation Yrotation Zrotation
										JOINT RightHandIndex3
										{
											OFFSET -3.323853 0.000000 0.000000
											CHANNELS 3 Xrotation Yrotation Zrotation
											End Site
											{
												OFFSET 1.135597 3.097809 0.402452
											}
										}
									}
								}
								JOINT RightHandMiddle1
								{
									OFFSET -11.335861 0.000000 0.000000
									CHANNELS 3 Xrotation Yrotation Zrotation
									JOINT RightHandMiddle2
									{
										OFFSET -3.410492 0.000000 0.000000
										CHANNELS 3 Xrotation Yrotation Zrotation
										JOINT RightHandMiddle3
										{
											OFFSET -3.312172 0.000000 0.000000
											CHANNELS 3 Xrotation Yrotation Zrotation
											End Site
											{
												OFFSET 1.150200 3.080154 0.400270
											}
										}
									}
								}
								JOINT RightHandRing1
								{
									OFFSET -11.514786 -0.013176 -3.003090
									CHANNELS 3 Xrotation Yrotation Zrotation
									JOINT RightHandRing2
									{
										OFFSET -3.053307 0.000000 0.000000
										CHANNELS 3 Xrotation Yrotation Zrotation
										JOINT RightHandRing3
										{
											OFFSET -3.295807 0.000000 0.000000
											CHANNELS 3 Xrotation Yrotation Zrotation
											End Site
											{
												OFFSET 1.281006 3.013344 0.375733
											}
										}
									}
								}
								JOINT RightHandPinky1
								{
									OFFSET -10.518692 -0.960396 -5.730441
									CHANNELS 3 Xrotation Yrotation Zrotation
									JOINT RightHandPinky2
									{
										OFFSET -2.861649 0.000000 0.000000
										CHANNELS 3 Xrotation Yrotation Zrotation
										JOINT RightHandPinky3
										{
											OFFSET -2.863380 0.000000 0.000000
											CHANNELS 3 Xrotation Yrotation Zrotation
											End Site
											{
												OFFSET 0.843597 2.711159 0.369971
											}
										}
									}
								}
							}
							JOINT RSleeve
							{
								OFFSET -6.676277 -0.344902 -1.011730
								CHANNELS 3 Xrotation Yrotation Zrotation
								End Site
								{
									OFFSET 0.000000 14.885353 0.000000
								}
							}
						}
					}
				}
				JOINT Backpack
				{
					OFFSET 0.000000 -2.471497 36.677502
					CHANNELS 3 Xrotation Yrotation Zrotation
					End Site
					{
						OFFSET 0.000000 20.427315 0.000000
					}
				}
				JOINT Hood
				{
					OFFSET 0.000000 18.754097 -10.431000
					CHANNELS 3 Xrotation Yrotation Zrotation
					JOINT Hood1
					{
						OFFSET 0.000000 -5.011002 -7.685901
						CHANNELS 3 Xrotation Yrotation Zrotation
						End Site
						{
							OFFSET 0.000000 9.175140 0.000000
						}
					}
				}
				JOINT LHoodieString
				{
					OFFSET 5.250500 16.397697 3.089900
					CHANNELS 3 Xrotation Yrotation Zrotation
					JOINT LHoodieString1
					{
						OFFSET 0.257700 -6.364304 3.694600
						CHANNELS 3 Xrotation Yrotation Zrotation
						JOINT LHoodieString2
						{
							OFFSET 0.000000 -9.643799 2.679100
							CHANNELS 3 Xrotation Yrotation Zrotation
							End Site
							{
								OFFSET 0.000000 10.009018 0.000000
							}
						}
					}
				}
				JOINT RHoodieString
				{
					OFFSET -5.250500 16.397697 3.089900
					CHANNELS 3 Xrotation Yrotation Zrotation
					JOINT RHoodieString1
					{
						OFFSET -0.257700 -6.364304 3.694600
						CHANNELS 3 Xrotation Yrotation Zrotation
						JOINT RHoodieString2
						{
							OFFSET 0.000000 -9.643799 2.679100
							CHANNELS 3 Xrotation Yrotation Zrotation
							End Site
							{
								OFFSET 0.000000 10.009018 0.000000
							}
						}
					}
				}
			}
			JOINT LBackpack_Strap
			{
				OFFSET 15.223200 -7.719803 -6.610900
				CHANNELS 3 Xrotation Yrotation Zrotation
				End Site
				{
					OFFSET 0.000000 16.040596 0.000000
				}
			}
			JOINT RBackpack_Strap
			{
				OFFSET -15.223000 -7.719803 -6.610900
				CHANNELS 3 Xrotation Yrotation Zrotation
				End Site
				{
					OFFSET 0.000000 16.040596 0.000000
				}
			}
		}
	}
	JOINT BoyFacialAnim_Joint
	{
		OFFSET 1.000000 -82.208099 -1.550900
		CHANNELS 3 Xrotation Yrotation Zrotation
		End Site
		{
			OFFSET 0.000000 30.012791 0.000000
		}
	}
}
MOTION
Frames: 4
Frame Time: 0.033333
3.130476 80.721542 87.811653 2.215656 3.485905 -0.346865 -0.000000 0.000000 -0.000000 5.891375 0.481783 -4.275424 19.530900 3.221650 0.262622 -13.631644 0.566289 4.246738 0.000000 0.000000 0.000000 0.000000 0.000000 0.000000 -0.000003 -0.000000 -0.000000 -30.975396 -1.971798 0.906579 5.567289 -10.009529 -0.868191 -3.149235 -10.254244 -3.241886 0.000001 -0.000001 -0.000001 0.000001 -0.000001 -0.000001 0.000000 -0.000000 -0.000000 1.833982 -3.246779 -0.125394 4.278382 -7.124967 3.061019 4.245452 -7.135888 3.069753 -7.683525 2.143672 2.027795 -15.060861 13.052093 1.765355 0.000001 0.000000 -0.000000 0.000001 0.000000 -0.000000 0.000001 0.000000 -0.000000 3.011871 -13.963048 -6.411765 -26.689582 -14.920610 -53.419678 0.000003 -43.791953 0.000002 3.149456 1.680645 -15.344068 -0.617414 21.802205 -4.640528 5.167083 23.551802 1.852301 0.000005 -0.000001 0.000002 0.910649 3.427277 -29.752666 0.446078 2.442369 -20.697698 -0.000001 -0.000001 -0.000002 0.909697 3.425586 -29.736629 0.446739 2.444165 -20.713722 0.000000 -0.000001 0.000000 0.910653 3.427261 -29.752673 0.446076 2.442367 -20.697702 0.000001 0.000003 0.000000 2.920451 6.953213 -29.424158 0.449532 -1.615818 -21.176108 0.000001 0.000002 0.000000 0.000001 -0.000001 0.000002 0.127388 -6.326038 9.755932 -10.972584 -12.060648 60.928887 0.000004 9.540517 -0.000011 33.692200 -10.405999 14.298749 -1.849250 -3.581803 -6.586167 20.811870 -8.546008 4.176267 -0.000001 -0.000002 0.000001 0.000150 -0.045548 0.373762 0.096658 -1.157690 9.544949 -0.000000 0.000000 -0.000000 0.000152 -0.045550 0.373757 0.096663 -1.157695 9.544972 0.000001 0.000001 -0.000000 0.000154 -0.045548 0.373759 0.096655 -1.157690 9.544954 0.000000 0.000001 0.000001 0.000147 -0.045548 0.373746 0.096665 -1.157691 9.544967 -0.000000 0.000001 -0.000001 -0.000001 0.000001 -0.000002 0.000001 0.000001 -0.000000 0.000001 0.000001 -0.000000 0.000001 0.000001 -0.000000 0.000001 0.000001 -0.000000 0.000001 0.000001 -0.000000 0.000001 0.000001 -0.000000 0.000001 0.000001 -0.000000 0.000001 0.000001 -0.000000 0.000001 0.000001 -0.000000 -0.000000 0.000001 -0.000000 -0.000000 0.000001 -0.000000 -0.000000 0.000000 -0.000000 
2.978241 80.511772 91.450119 3.402709 4.040762 -0.753786 0.000000 -0.000000 -0.000000 5.813355 1.439616 -3.154265 20.916461 2.587355 0.173769 -10.123041 0.171511 3.631592 -0.000001 0.000000 -0.000000 -0.000001 0.000000 -0.000000 0.000000 -0.000000 -0.000000 -31.085581 -2.725253 1.908636 5.695156 -9.939246 -0.904512 0.783840 -10.934687 -5.508219 0.000001 0.000001 -0.000000 0.000001 0.000001 -0.000000 -0.000000 -0.000000 0.000000 1.657124 -3.134260 0.251119 3.804427 -7.045966 3.394581 3.776176 -7.059972 3.391982 -7.463458 2.019971 1.606898 -15.157421 11.827871 1.796434 -0.000001 0.000000 -0.000001 -0.000001 0.000000 -0.000001 -0.000001 0.000000 -0.000001 2.955333 -13.391324 -6.904047 -26.213904 -15.565400 -54.023986 -0.000004 -42.036799 -0.000010 6.666513 -0.428618 -16.659070 -0.718654 21.455552 -4.099155 5.140298 23.180532 1.829017 -0.000001 -0.000001 -0.000001 0.837548 3.296273 -28.505680 0.403373 2.326270 -19.671075 0.000000 -0.000003 -0.000002 0.836606 3.294586 -28.489672 0.404010 2.328082 -19.687103 0.000002 -0.000001 -0.000002 0.837543 3.296264 -28.505690 0.403368 2.326276 -19.671069 -0.000001 0.000002 -0.000003 2.769159 6.865103 -28.166440 0.405848 -1.731559 -20.152559 0.000001 -0.000000 0.000001 -0.000003 -0.000001 -0.000001 0.105626 -6.563296 9.964064 -10.145456 -12.770073 61.765353 0.000007 9.627411 0.000018 35.026979 -11.187581 14.006785 -1.849249 -3.581802 -6.586168 20.861641 -8.834451 4.158115 -0.000001 0.000000 -0.000002 0.002156 -0.173730 1.425743 0.105177 -1.207228 9.957568 -0.000001 0.000002 0.000002 0.002157 -0.173733 1.425747 0.105181 -1.207226 9.957584 0.000002 0.000001 -0.000000 0.002163 -0.173731 1.425760 0.105173 -1.207224 9.957568 -0.000000 -0.000001 0.000004 0.002158 -0.173731 1.425746 0.105174 -1.207230 9.957559 0.000000 -0.000001 0.000000 -0.000002 -0.000000 0.000000 0.000000 0.000001 -0.000000 0.000000 0.000001 -0.000000 0.000000 0.000001 -0.000000 0.000000 0.000001 -0.000000 0.000000 0.000001 -0.000000 0.000000 0.000001 -0.000000 0.000000 0.000001 -0.000000 0.000000 0.000001 -0.000000 0.000000 0.000001 -0.000000 0.000001 0.000001 -0.000000 0.000001 0.000001 -0.000000 0.000000 -0.000000 -0.000000 
2.734221 80.162918 95.073685 4.297926 4.411941 -1.207048 0.000000 -0.000000 -0.000000 5.825883 2.439751 -1.901132 22.558295 1.925570 0.086753 -5.776919 -0.084777 3.210166 -0.000000 0.000000 0.000000 -0.000000 0.000000 0.000000 0.000001 0.000001 -0.000001 -33.000482 -3.697912 2.814933 10.570658 -9.864172 -0.923089 2.365751 -11.496454 -7.120579 -0.000000 0.000000 0.000000 -0.000000 0.000000 0.000000 -0.000000 0.000001 0.000000 1.531182 -2.963790 0.729434 3.392558 -6.855856 3.748781 3.371046 -6.874031 3.732064 -7.281438 1.869133 1.220123 -15.194821 10.544498 1.748846 -0.000000 0.000000 0.000000 -0.000000 0.000000 0.000000 -0.000000 0.000000 0.000000 2.913500 -12.870738 -7.429348 -25.441516 -15.993668 -54.861049 -0.000005 -39.380617 -0.000001 10.388152 -3.152596 -17.531340 -0.824387 21.059379 -3.519627 5.111530 22.783298 1.803971 -0.000000 -0.000001 -0.000000 0.760032 3.149603 -27.127042 0.359111 2.198671 -18.550276 -0.000001 0.000003 -0.000001 0.759147 3.147872 -27.111027 0.359730 2.200507 -18.566273 0.000001 0.000000 0.000004 0.760032 3.149591 -27.127051 0.359110 2.198674 -18.550276 -0.000000 0.000001 -0.000000 2.604166 6.763855 -26.776064 0.360566 -1.858793 -19.034911 -0.000000 0.000004 0.000000 -0.000002 0.000001 -0.000001 0.119959 -6.556659 10.151005 -9.238538 -13.539210 62.493752 -0.000004 9.938456 -0.000000 36.483438 -10.881635 13.340755 -1.849251 -3.581802 -6.586168 20.916022 -9.150038 4.138491 0.000000 0.000002 -0.000001 0.007054 -0.313901 2.576650 0.114903 -1.261367 10.409056 -0.000000 -0.000001 0.000003 0.007061 -0.313901 2.576659 0.114892 -1.261363 10.409038 0.000001 0.000000 0.000003 0.007057 -0.313901 2.576665 0.114890 -1.261360 10.409024 -0.000000 0.000000 0.000000 0.007053 -0.313898 2.576645 0.114898 -1.261364 10.409043 -0.000000 -0.000000 -0.000002 -0.000000 -0.000000 0.000000 0.000001 -0.000000 0.000000 0.000001 -0.000000 0.000000 0.000001 -0.000000 0.000000 0.000001 -0.000000 0.000000 0.000001 -0.000000 -0.000000 -0.000000 0.000001 -0.000000 0.000001 -0.000000 0.000000 0.000001 -0.000000 -0.000000 -0.000000 0.000001 -0.000000 0.000000 -0.000000 -0.000000 0.000000 -0.000000 -0.000000 0.000000 -0.000000 -0.000000 
2.370959 79.693741 98.583633 4.624437 4.604371 -1.773380 -0.000000 0.000000 -0.000000 4.163359 3.726426 -0.258089 27.203633 0.983678 0.019510 0.444481 -0.052087 3.569491 0.000001 0.000000 0.000000 0.000001 0.000000 -0.000000 0.000000 -0.000000 -0.000000 -35.118613 -5.053285 3.470967 17.570795 -10.017192 -0.907576 2.215583 -11.410213 -7.781219 -0.000000 -0.000001 -0.000000 -0.000000 -0.000001 -0.000000 0.000001 0.000001 -0.000001 1.464300 -2.636140 1.347196 3.105066 -6.372078 4.107849 3.090108 -6.394599 4.081787 -7.144482 1.686135 0.907236 -15.211709 9.235492 1.595884 0.000001 0.000000 -0.000000 0.000001 0.000000 -0.000000 0.000001 0.000000 -0.000000 2.885237 -12.445071 -8.054466 -25.360718 -16.336199 -56.523623 0.000013 -33.083992 0.000036 14.447938 -6.977297 -17.338060 -0.930190 20.624007 -2.911232 5.081216 22.365586 1.777448 -0.000002 -0.000001 0.000001 0.680612 2.989760 -25.644230 0.314671 2.061627 -17.354952 -0.000001 -0.000002 -0.000005 0.679786 2.988019 -25.628202 0.315252 2.063474 -17.370957 0.000002 0.000000 0.000000 0.680617 2.989749 -25.644229 0.314658 2.061623 -17.354963 -0.000001 -0.000001 -0.000000 2.429542 6.650521 -25.280837 0.314957 -1.995436 -17.842783 0.000002 -0.000003 -0.000002 0.000003 0.000002 -0.000003 0.234929 -5.835528 10.267058 -8.558903 -14.257520 63.111023 0.000000 10.996570 -0.000011 37.220009 -8.301759 12.033302 -1.849252 -3.581802 -6.586167 20.974095 -9.487437 4.117868 -0.000002 0.000000 0.000001 0.015400 -0.463612 3.807071 0.125765 -1.319133 10.891677 -0.000000 -0.000001 0.000003 0.015408 -0.463612 3.807092 0.125758 -1.319135 10.891653 0.000001 0.000002 0.000000 0.015408 -0.463611 3.807090 0.125757 -1.319131 10.891662 -0.000000 -0.000000 0.000004 0.015408 -0.463610 3.807086 0.125753 -1.319137 10.891648 -0.000001 -0.000001 0.000000 -0.000000 -0.000000 -0.000001 -0.000000 -0.000001 -0.000000 -0.000000 -0.000001 -0.000000 -0.000000 -0.000001 -0.000000 -0.000000 -0.000001 -0.000000 -0.000000 -0.000001 -0.000000 -0.000000 0.000000 0.000000 -0.000000 -0.000001 -0.000000 -0.000000 -0.000001 -0.000000 -0.000000 0.000000 0.000000 0.000001 0.000000 0.000000 0.000001 0.000000 0.000000 -0.000000 0.000000 -0.000000 
